<svg xmlns="http://www.w3.org/2000/svg" xmlns:xlink="http://www.w3.org/1999/xlink" width="600" height="400" viewBox="0 0 2400 1600">
<defs>
  <clipPath id="clip890">
    <rect x="0" y="0" width="2400" height="1600"></rect>
  </clipPath>
</defs>
<path clip-path="url(#clip890)" d="M0 1600 L2400 1600 L2400 0 L0 0  Z" fill="#ffffff" fill-rule="evenodd" fill-opacity="1"></path>
<defs>
  <clipPath id="clip891">
    <rect x="480" y="0" width="1681" height="1600"></rect>
  </clipPath>
</defs>
<path clip-path="url(#clip890)" d="M186.76 1423.18 L2352.76 1423.18 L2352.76 47.2441 L186.76 47.2441  Z" fill="#ffffff" fill-rule="evenodd" fill-opacity="1"></path>
<defs>
  <clipPath id="clip892">
    <rect x="186" y="47" width="2167" height="1377"></rect>
  </clipPath>
</defs>
<polyline clip-path="url(#clip892)" style="stroke:#000000; stroke-linecap:round; stroke-linejoin:round; stroke-width:2; stroke-opacity:0.1; fill:none" points="186.76,1423.18 186.76,47.2441 "></polyline>
<polyline clip-path="url(#clip892)" style="stroke:#000000; stroke-linecap:round; stroke-linejoin:round; stroke-width:2; stroke-opacity:0.1; fill:none" points="619.959,1423.18 619.959,47.2441 "></polyline>
<polyline clip-path="url(#clip892)" style="stroke:#000000; stroke-linecap:round; stroke-linejoin:round; stroke-width:2; stroke-opacity:0.1; fill:none" points="1053.16,1423.18 1053.16,47.2441 "></polyline>
<polyline clip-path="url(#clip892)" style="stroke:#000000; stroke-linecap:round; stroke-linejoin:round; stroke-width:2; stroke-opacity:0.1; fill:none" points="1486.36,1423.18 1486.36,47.2441 "></polyline>
<polyline clip-path="url(#clip892)" style="stroke:#000000; stroke-linecap:round; stroke-linejoin:round; stroke-width:2; stroke-opacity:0.1; fill:none" points="1919.56,1423.18 1919.56,47.2441 "></polyline>
<polyline clip-path="url(#clip892)" style="stroke:#000000; stroke-linecap:round; stroke-linejoin:round; stroke-width:2; stroke-opacity:0.1; fill:none" points="2352.76,1423.18 2352.76,47.2441 "></polyline>
<polyline clip-path="url(#clip890)" style="stroke:#000000; stroke-linecap:round; stroke-linejoin:round; stroke-width:4; stroke-opacity:1; fill:none" points="186.76,1423.18 2352.76,1423.18 "></polyline>
<polyline clip-path="url(#clip890)" style="stroke:#000000; stroke-linecap:round; stroke-linejoin:round; stroke-width:4; stroke-opacity:1; fill:none" points="186.76,1423.18 186.76,1404.28 "></polyline>
<polyline clip-path="url(#clip890)" style="stroke:#000000; stroke-linecap:round; stroke-linejoin:round; stroke-width:4; stroke-opacity:1; fill:none" points="619.959,1423.18 619.959,1404.28 "></polyline>
<polyline clip-path="url(#clip890)" style="stroke:#000000; stroke-linecap:round; stroke-linejoin:round; stroke-width:4; stroke-opacity:1; fill:none" points="1053.16,1423.18 1053.16,1404.28 "></polyline>
<polyline clip-path="url(#clip890)" style="stroke:#000000; stroke-linecap:round; stroke-linejoin:round; stroke-width:4; stroke-opacity:1; fill:none" points="1486.36,1423.18 1486.36,1404.28 "></polyline>
<polyline clip-path="url(#clip890)" style="stroke:#000000; stroke-linecap:round; stroke-linejoin:round; stroke-width:4; stroke-opacity:1; fill:none" points="1919.56,1423.18 1919.56,1404.28 "></polyline>
<polyline clip-path="url(#clip890)" style="stroke:#000000; stroke-linecap:round; stroke-linejoin:round; stroke-width:4; stroke-opacity:1; fill:none" points="2352.76,1423.18 2352.76,1404.28 "></polyline>
<path clip-path="url(#clip890)" d="M164.144 1454.1 Q160.533 1454.1 158.705 1457.66 Q156.899 1461.2 156.899 1468.33 Q156.899 1475.44 158.705 1479.01 Q160.533 1482.55 164.144 1482.55 Q167.779 1482.55 169.584 1479.01 Q171.413 1475.44 171.413 1468.33 Q171.413 1461.2 169.584 1457.66 Q167.779 1454.1 164.144 1454.1 M164.144 1450.39 Q169.955 1450.39 173.01 1455 Q176.089 1459.58 176.089 1468.33 Q176.089 1477.06 173.01 1481.67 Q169.955 1486.25 164.144 1486.25 Q158.334 1486.25 155.256 1481.67 Q152.2 1477.06 152.2 1468.33 Q152.2 1459.58 155.256 1455 Q158.334 1450.39 164.144 1450.39 Z" fill="#000000" fill-rule="nonzero" fill-opacity="1"></path><path clip-path="url(#clip890)" d="M184.306 1479.7 L189.191 1479.7 L189.191 1485.58 L184.306 1485.58 L184.306 1479.7 Z" fill="#000000" fill-rule="nonzero" fill-opacity="1"></path><path clip-path="url(#clip890)" d="M209.376 1454.1 Q205.765 1454.1 203.936 1457.66 Q202.13 1461.2 202.13 1468.33 Q202.13 1475.44 203.936 1479.01 Q205.765 1482.55 209.376 1482.55 Q213.01 1482.55 214.816 1479.01 Q216.644 1475.44 216.644 1468.33 Q216.644 1461.2 214.816 1457.66 Q213.01 1454.1 209.376 1454.1 M209.376 1450.39 Q215.186 1450.39 218.241 1455 Q221.32 1459.58 221.32 1468.33 Q221.32 1477.06 218.241 1481.67 Q215.186 1486.25 209.376 1486.25 Q203.566 1486.25 200.487 1481.67 Q197.431 1477.06 197.431 1468.33 Q197.431 1459.58 200.487 1455 Q203.566 1450.39 209.376 1450.39 Z" fill="#000000" fill-rule="nonzero" fill-opacity="1"></path><path clip-path="url(#clip890)" d="M598.142 1454.1 Q594.531 1454.1 592.702 1457.66 Q590.897 1461.2 590.897 1468.33 Q590.897 1475.44 592.702 1479.01 Q594.531 1482.55 598.142 1482.55 Q601.776 1482.55 603.582 1479.01 Q605.411 1475.44 605.411 1468.33 Q605.411 1461.2 603.582 1457.66 Q601.776 1454.1 598.142 1454.1 M598.142 1450.39 Q603.952 1450.39 607.008 1455 Q610.087 1459.58 610.087 1468.33 Q610.087 1477.06 607.008 1481.67 Q603.952 1486.25 598.142 1486.25 Q592.332 1486.25 589.253 1481.67 Q586.198 1477.06 586.198 1468.33 Q586.198 1459.58 589.253 1455 Q592.332 1450.39 598.142 1450.39 Z" fill="#000000" fill-rule="nonzero" fill-opacity="1"></path><path clip-path="url(#clip890)" d="M618.304 1479.7 L623.188 1479.7 L623.188 1485.58 L618.304 1485.58 L618.304 1479.7 Z" fill="#000000" fill-rule="nonzero" fill-opacity="1"></path><path clip-path="url(#clip890)" d="M637.401 1481.64 L653.721 1481.64 L653.721 1485.58 L631.776 1485.58 L631.776 1481.64 Q634.438 1478.89 639.022 1474.26 Q643.628 1469.61 644.809 1468.27 Q647.054 1465.74 647.934 1464.01 Q648.836 1462.25 648.836 1460.56 Q648.836 1457.8 646.892 1456.07 Q644.971 1454.33 641.869 1454.33 Q639.67 1454.33 637.216 1455.09 Q634.786 1455.86 632.008 1457.41 L632.008 1452.69 Q634.832 1451.55 637.286 1450.97 Q639.739 1450.39 641.776 1450.39 Q647.147 1450.39 650.341 1453.08 Q653.535 1455.77 653.535 1460.26 Q653.535 1462.39 652.725 1464.31 Q651.938 1466.2 649.832 1468.8 Q649.253 1469.47 646.151 1472.69 Q643.049 1475.88 637.401 1481.64 Z" fill="#000000" fill-rule="nonzero" fill-opacity="1"></path><path clip-path="url(#clip890)" d="M1030.3 1454.1 Q1026.69 1454.1 1024.86 1457.66 Q1023.05 1461.2 1023.05 1468.33 Q1023.05 1475.44 1024.86 1479.01 Q1026.69 1482.55 1030.3 1482.55 Q1033.93 1482.55 1035.74 1479.01 Q1037.57 1475.44 1037.57 1468.33 Q1037.57 1461.2 1035.74 1457.66 Q1033.93 1454.1 1030.3 1454.1 M1030.3 1450.39 Q1036.11 1450.39 1039.17 1455 Q1042.24 1459.58 1042.24 1468.33 Q1042.24 1477.06 1039.17 1481.67 Q1036.11 1486.25 1030.3 1486.25 Q1024.49 1486.25 1021.41 1481.67 Q1018.36 1477.06 1018.36 1468.33 Q1018.36 1459.58 1021.41 1455 Q1024.49 1450.39 1030.3 1450.39 Z" fill="#000000" fill-rule="nonzero" fill-opacity="1"></path><path clip-path="url(#clip890)" d="M1050.46 1479.7 L1055.35 1479.7 L1055.35 1485.58 L1050.46 1485.58 L1050.46 1479.7 Z" fill="#000000" fill-rule="nonzero" fill-opacity="1"></path><path clip-path="url(#clip890)" d="M1078.38 1455.09 L1066.57 1473.54 L1078.38 1473.54 L1078.38 1455.09 M1077.15 1451.02 L1083.03 1451.02 L1083.03 1473.54 L1087.96 1473.54 L1087.96 1477.43 L1083.03 1477.43 L1083.03 1485.58 L1078.38 1485.58 L1078.38 1477.43 L1062.78 1477.43 L1062.78 1472.92 L1077.15 1451.02 Z" fill="#000000" fill-rule="nonzero" fill-opacity="1"></path><path clip-path="url(#clip890)" d="M1463.66 1454.1 Q1460.05 1454.1 1458.22 1457.66 Q1456.42 1461.2 1456.42 1468.33 Q1456.42 1475.44 1458.22 1479.01 Q1460.05 1482.55 1463.66 1482.55 Q1467.3 1482.55 1469.1 1479.01 Q1470.93 1475.44 1470.93 1468.33 Q1470.93 1461.2 1469.1 1457.66 Q1467.3 1454.1 1463.66 1454.1 M1463.66 1450.39 Q1469.47 1450.39 1472.53 1455 Q1475.61 1459.58 1475.61 1468.33 Q1475.61 1477.06 1472.53 1481.67 Q1469.47 1486.25 1463.66 1486.25 Q1457.85 1486.25 1454.77 1481.67 Q1451.72 1477.06 1451.72 1468.33 Q1451.72 1459.58 1454.77 1455 Q1457.85 1450.39 1463.66 1450.39 Z" fill="#000000" fill-rule="nonzero" fill-opacity="1"></path><path clip-path="url(#clip890)" d="M1483.82 1479.7 L1488.71 1479.7 L1488.71 1485.58 L1483.82 1485.58 L1483.82 1479.7 Z" fill="#000000" fill-rule="nonzero" fill-opacity="1"></path><path clip-path="url(#clip890)" d="M1509.47 1466.44 Q1506.32 1466.44 1504.47 1468.59 Q1502.64 1470.74 1502.64 1474.49 Q1502.64 1478.22 1504.47 1480.39 Q1506.32 1482.55 1509.47 1482.55 Q1512.62 1482.55 1514.45 1480.39 Q1516.3 1478.22 1516.3 1474.49 Q1516.3 1470.74 1514.45 1468.59 Q1512.62 1466.44 1509.47 1466.44 M1518.75 1451.78 L1518.75 1456.04 Q1516.99 1455.21 1515.19 1454.77 Q1513.41 1454.33 1511.65 1454.33 Q1507.02 1454.33 1504.56 1457.45 Q1502.13 1460.58 1501.79 1466.9 Q1503.15 1464.89 1505.21 1463.82 Q1507.27 1462.73 1509.75 1462.73 Q1514.96 1462.73 1517.97 1465.9 Q1521 1469.05 1521 1474.49 Q1521 1479.82 1517.85 1483.03 Q1514.7 1486.25 1509.47 1486.25 Q1503.48 1486.25 1500.3 1481.67 Q1497.13 1477.06 1497.13 1468.33 Q1497.13 1460.14 1501.02 1455.28 Q1504.91 1450.39 1511.46 1450.39 Q1513.22 1450.39 1515 1450.74 Q1516.81 1451.09 1518.75 1451.78 Z" fill="#000000" fill-rule="nonzero" fill-opacity="1"></path><path clip-path="url(#clip890)" d="M1896.99 1454.1 Q1893.38 1454.1 1891.55 1457.66 Q1889.74 1461.2 1889.74 1468.33 Q1889.74 1475.44 1891.55 1479.01 Q1893.38 1482.55 1896.99 1482.55 Q1900.62 1482.55 1902.43 1479.01 Q1904.26 1475.44 1904.26 1468.33 Q1904.26 1461.2 1902.43 1457.66 Q1900.62 1454.1 1896.99 1454.1 M1896.99 1450.39 Q1902.8 1450.39 1905.85 1455 Q1908.93 1459.58 1908.93 1468.33 Q1908.93 1477.06 1905.85 1481.67 Q1902.8 1486.25 1896.99 1486.25 Q1891.18 1486.25 1888.1 1481.67 Q1885.04 1477.06 1885.04 1468.33 Q1885.04 1459.58 1888.1 1455 Q1891.18 1450.39 1896.99 1450.39 Z" fill="#000000" fill-rule="nonzero" fill-opacity="1"></path><path clip-path="url(#clip890)" d="M1917.15 1479.7 L1922.03 1479.7 L1922.03 1485.58 L1917.15 1485.58 L1917.15 1479.7 Z" fill="#000000" fill-rule="nonzero" fill-opacity="1"></path><path clip-path="url(#clip890)" d="M1942.22 1469.17 Q1938.89 1469.17 1936.96 1470.95 Q1935.07 1472.73 1935.07 1475.86 Q1935.07 1478.98 1936.96 1480.77 Q1938.89 1482.55 1942.22 1482.55 Q1945.55 1482.55 1947.47 1480.77 Q1949.39 1478.96 1949.39 1475.86 Q1949.39 1472.73 1947.47 1470.95 Q1945.58 1469.17 1942.22 1469.17 M1937.54 1467.18 Q1934.53 1466.44 1932.84 1464.38 Q1931.18 1462.32 1931.18 1459.35 Q1931.18 1455.21 1934.12 1452.8 Q1937.08 1450.39 1942.22 1450.39 Q1947.38 1450.39 1950.32 1452.8 Q1953.26 1455.21 1953.26 1459.35 Q1953.26 1462.32 1951.57 1464.38 Q1949.9 1466.44 1946.92 1467.18 Q1950.3 1467.96 1952.17 1470.26 Q1954.07 1472.55 1954.07 1475.86 Q1954.07 1480.88 1950.99 1483.57 Q1947.94 1486.25 1942.22 1486.25 Q1936.5 1486.25 1933.42 1483.57 Q1930.37 1480.88 1930.37 1475.86 Q1930.37 1472.55 1932.27 1470.26 Q1934.16 1467.96 1937.54 1467.18 M1935.83 1459.79 Q1935.83 1462.48 1937.5 1463.98 Q1939.19 1465.49 1942.22 1465.49 Q1945.23 1465.49 1946.92 1463.98 Q1948.63 1462.48 1948.63 1459.79 Q1948.63 1457.11 1946.92 1455.6 Q1945.23 1454.1 1942.22 1454.1 Q1939.19 1454.1 1937.5 1455.6 Q1935.83 1457.11 1935.83 1459.79 Z" fill="#000000" fill-rule="nonzero" fill-opacity="1"></path><path clip-path="url(#clip890)" d="M2319.91 1481.64 L2327.55 1481.64 L2327.55 1455.28 L2319.24 1456.95 L2319.24 1452.69 L2327.5 1451.02 L2332.18 1451.02 L2332.18 1481.64 L2339.82 1481.64 L2339.82 1485.58 L2319.91 1485.58 L2319.91 1481.64 Z" fill="#000000" fill-rule="nonzero" fill-opacity="1"></path><path clip-path="url(#clip890)" d="M2349.26 1479.7 L2354.14 1479.7 L2354.14 1485.58 L2349.26 1485.58 L2349.26 1479.7 Z" fill="#000000" fill-rule="nonzero" fill-opacity="1"></path><path clip-path="url(#clip890)" d="M2374.33 1454.1 Q2370.72 1454.1 2368.89 1457.66 Q2367.08 1461.2 2367.08 1468.33 Q2367.08 1475.44 2368.89 1479.01 Q2370.72 1482.55 2374.33 1482.55 Q2377.96 1482.55 2379.77 1479.01 Q2381.6 1475.44 2381.6 1468.33 Q2381.6 1461.2 2379.77 1457.66 Q2377.96 1454.1 2374.33 1454.1 M2374.33 1450.39 Q2380.14 1450.39 2383.2 1455 Q2386.27 1459.58 2386.27 1468.33 Q2386.27 1477.06 2383.2 1481.67 Q2380.14 1486.25 2374.33 1486.25 Q2368.52 1486.25 2365.44 1481.67 Q2362.39 1477.06 2362.39 1468.33 Q2362.39 1459.58 2365.44 1455 Q2368.52 1450.39 2374.33 1450.39 Z" fill="#000000" fill-rule="nonzero" fill-opacity="1"></path><path clip-path="url(#clip890)" d="M1268.82 1522.27 L1268.82 1532.4 L1280.88 1532.4 L1280.88 1536.95 L1268.82 1536.95 L1268.82 1556.3 Q1268.82 1560.66 1270 1561.9 Q1271.21 1563.14 1274.87 1563.14 L1280.88 1563.14 L1280.88 1568.04 L1274.87 1568.04 Q1268.09 1568.04 1265.51 1565.53 Q1262.93 1562.98 1262.93 1556.3 L1262.93 1536.95 L1258.63 1536.95 L1258.63 1532.4 L1262.93 1532.4 L1262.93 1522.27 L1268.82 1522.27 Z" fill="#000000" fill-rule="nonzero" fill-opacity="1"></path><polyline clip-path="url(#clip892)" style="stroke:#000000; stroke-linecap:round; stroke-linejoin:round; stroke-width:2; stroke-opacity:0.1; fill:none" points="186.76,1341.77 2352.76,1341.77 "></polyline>
<polyline clip-path="url(#clip892)" style="stroke:#000000; stroke-linecap:round; stroke-linejoin:round; stroke-width:2; stroke-opacity:0.1; fill:none" points="186.76,1111.49 2352.76,1111.49 "></polyline>
<polyline clip-path="url(#clip892)" style="stroke:#000000; stroke-linecap:round; stroke-linejoin:round; stroke-width:2; stroke-opacity:0.1; fill:none" points="186.76,881.207 2352.76,881.207 "></polyline>
<polyline clip-path="url(#clip892)" style="stroke:#000000; stroke-linecap:round; stroke-linejoin:round; stroke-width:2; stroke-opacity:0.1; fill:none" points="186.76,650.925 2352.76,650.925 "></polyline>
<polyline clip-path="url(#clip892)" style="stroke:#000000; stroke-linecap:round; stroke-linejoin:round; stroke-width:2; stroke-opacity:0.1; fill:none" points="186.76,420.643 2352.76,420.643 "></polyline>
<polyline clip-path="url(#clip892)" style="stroke:#000000; stroke-linecap:round; stroke-linejoin:round; stroke-width:2; stroke-opacity:0.1; fill:none" points="186.76,190.361 2352.76,190.361 "></polyline>
<polyline clip-path="url(#clip890)" style="stroke:#000000; stroke-linecap:round; stroke-linejoin:round; stroke-width:4; stroke-opacity:1; fill:none" points="186.76,1423.18 186.76,47.2441 "></polyline>
<polyline clip-path="url(#clip890)" style="stroke:#000000; stroke-linecap:round; stroke-linejoin:round; stroke-width:4; stroke-opacity:1; fill:none" points="186.76,1341.77 205.658,1341.77 "></polyline>
<polyline clip-path="url(#clip890)" style="stroke:#000000; stroke-linecap:round; stroke-linejoin:round; stroke-width:4; stroke-opacity:1; fill:none" points="186.76,1111.49 205.658,1111.49 "></polyline>
<polyline clip-path="url(#clip890)" style="stroke:#000000; stroke-linecap:round; stroke-linejoin:round; stroke-width:4; stroke-opacity:1; fill:none" points="186.76,881.207 205.658,881.207 "></polyline>
<polyline clip-path="url(#clip890)" style="stroke:#000000; stroke-linecap:round; stroke-linejoin:round; stroke-width:4; stroke-opacity:1; fill:none" points="186.76,650.925 205.658,650.925 "></polyline>
<polyline clip-path="url(#clip890)" style="stroke:#000000; stroke-linecap:round; stroke-linejoin:round; stroke-width:4; stroke-opacity:1; fill:none" points="186.76,420.643 205.658,420.643 "></polyline>
<polyline clip-path="url(#clip890)" style="stroke:#000000; stroke-linecap:round; stroke-linejoin:round; stroke-width:4; stroke-opacity:1; fill:none" points="186.76,190.361 205.658,190.361 "></polyline>
<path clip-path="url(#clip890)" d="M63.4226 1327.57 Q59.8115 1327.57 57.9828 1331.13 Q56.1773 1334.68 56.1773 1341.81 Q56.1773 1348.91 57.9828 1352.48 Q59.8115 1356.02 63.4226 1356.02 Q67.0569 1356.02 68.8624 1352.48 Q70.6911 1348.91 70.6911 1341.81 Q70.6911 1334.68 68.8624 1331.13 Q67.0569 1327.57 63.4226 1327.57 M63.4226 1323.87 Q69.2328 1323.87 72.2883 1328.47 Q75.367 1333.06 75.367 1341.81 Q75.367 1350.53 72.2883 1355.14 Q69.2328 1359.72 63.4226 1359.72 Q57.6125 1359.72 54.5338 1355.14 Q51.4782 1350.53 51.4782 1341.81 Q51.4782 1333.06 54.5338 1328.47 Q57.6125 1323.87 63.4226 1323.87 Z" fill="#000000" fill-rule="nonzero" fill-opacity="1"></path><path clip-path="url(#clip890)" d="M83.5845 1353.17 L88.4688 1353.17 L88.4688 1359.05 L83.5845 1359.05 L83.5845 1353.17 Z" fill="#000000" fill-rule="nonzero" fill-opacity="1"></path><path clip-path="url(#clip890)" d="M98.7002 1324.49 L117.057 1324.49 L117.057 1328.43 L102.983 1328.43 L102.983 1336.9 Q104.001 1336.55 105.02 1336.39 Q106.038 1336.2 107.057 1336.2 Q112.844 1336.2 116.223 1339.38 Q119.603 1342.55 119.603 1347.96 Q119.603 1353.54 116.131 1356.64 Q112.658 1359.72 106.339 1359.72 Q104.163 1359.72 101.895 1359.35 Q99.6493 1358.98 97.2419 1358.24 L97.2419 1353.54 Q99.3252 1354.68 101.547 1355.23 Q103.77 1355.79 106.246 1355.79 Q110.251 1355.79 112.589 1353.68 Q114.927 1351.57 114.927 1347.96 Q114.927 1344.35 112.589 1342.25 Q110.251 1340.14 106.246 1340.14 Q104.371 1340.14 102.496 1340.56 Q100.645 1340.97 98.7002 1341.85 L98.7002 1324.49 Z" fill="#000000" fill-rule="nonzero" fill-opacity="1"></path><path clip-path="url(#clip890)" d="M138.816 1327.57 Q135.205 1327.57 133.376 1331.13 Q131.57 1334.68 131.57 1341.81 Q131.57 1348.91 133.376 1352.48 Q135.205 1356.02 138.816 1356.02 Q142.45 1356.02 144.256 1352.48 Q146.084 1348.91 146.084 1341.81 Q146.084 1334.68 144.256 1331.13 Q142.45 1327.57 138.816 1327.57 M138.816 1323.87 Q144.626 1323.87 147.681 1328.47 Q150.76 1333.06 150.76 1341.81 Q150.76 1350.53 147.681 1355.14 Q144.626 1359.72 138.816 1359.72 Q133.006 1359.72 129.927 1355.14 Q126.871 1350.53 126.871 1341.81 Q126.871 1333.06 129.927 1328.47 Q133.006 1323.87 138.816 1323.87 Z" fill="#000000" fill-rule="nonzero" fill-opacity="1"></path><path clip-path="url(#clip890)" d="M64.6495 1097.29 Q61.0384 1097.29 59.2097 1100.85 Q57.4041 1104.39 57.4041 1111.52 Q57.4041 1118.63 59.2097 1122.2 Q61.0384 1125.74 64.6495 1125.74 Q68.2837 1125.74 70.0892 1122.2 Q71.9179 1118.63 71.9179 1111.52 Q71.9179 1104.39 70.0892 1100.85 Q68.2837 1097.29 64.6495 1097.29 M64.6495 1093.58 Q70.4596 1093.58 73.5152 1098.19 Q76.5938 1102.77 76.5938 1111.52 Q76.5938 1120.25 73.5152 1124.86 Q70.4596 1129.44 64.6495 1129.44 Q58.8393 1129.44 55.7606 1124.86 Q52.7051 1120.25 52.7051 1111.52 Q52.7051 1102.77 55.7606 1098.19 Q58.8393 1093.58 64.6495 1093.58 Z" fill="#000000" fill-rule="nonzero" fill-opacity="1"></path><path clip-path="url(#clip890)" d="M84.8114 1122.89 L89.6956 1122.89 L89.6956 1128.77 L84.8114 1128.77 L84.8114 1122.89 Z" fill="#000000" fill-rule="nonzero" fill-opacity="1"></path><path clip-path="url(#clip890)" d="M99.927 1094.21 L118.283 1094.21 L118.283 1098.14 L104.209 1098.14 L104.209 1106.62 Q105.228 1106.27 106.246 1106.11 Q107.265 1105.92 108.283 1105.92 Q114.07 1105.92 117.45 1109.09 Q120.83 1112.26 120.83 1117.68 Q120.83 1123.26 117.358 1126.36 Q113.885 1129.44 107.566 1129.44 Q105.39 1129.44 103.121 1129.07 Q100.876 1128.7 98.4687 1127.96 L98.4687 1123.26 Q100.552 1124.39 102.774 1124.95 Q104.996 1125.51 107.473 1125.51 Q111.478 1125.51 113.816 1123.4 Q116.154 1121.29 116.154 1117.68 Q116.154 1114.07 113.816 1111.96 Q111.478 1109.86 107.473 1109.86 Q105.598 1109.86 103.723 1110.27 Q101.871 1110.69 99.927 1111.57 L99.927 1094.21 Z" fill="#000000" fill-rule="nonzero" fill-opacity="1"></path><path clip-path="url(#clip890)" d="M130.853 1124.83 L138.492 1124.83 L138.492 1098.47 L130.182 1100.14 L130.182 1095.88 L138.445 1094.21 L143.121 1094.21 L143.121 1124.83 L150.76 1124.83 L150.76 1128.77 L130.853 1128.77 L130.853 1124.83 Z" fill="#000000" fill-rule="nonzero" fill-opacity="1"></path><path clip-path="url(#clip890)" d="M65.0198 867.006 Q61.4087 867.006 59.58 870.571 Q57.7745 874.112 57.7745 881.242 Q57.7745 888.348 59.58 891.913 Q61.4087 895.455 65.0198 895.455 Q68.6541 895.455 70.4596 891.913 Q72.2883 888.348 72.2883 881.242 Q72.2883 874.112 70.4596 870.571 Q68.6541 867.006 65.0198 867.006 M65.0198 863.302 Q70.83 863.302 73.8855 867.909 Q76.9642 872.492 76.9642 881.242 Q76.9642 889.969 73.8855 894.575 Q70.83 899.158 65.0198 899.158 Q59.2097 899.158 56.131 894.575 Q53.0754 889.969 53.0754 881.242 Q53.0754 872.492 56.131 867.909 Q59.2097 863.302 65.0198 863.302 Z" fill="#000000" fill-rule="nonzero" fill-opacity="1"></path><path clip-path="url(#clip890)" d="M85.1818 892.608 L90.066 892.608 L90.066 898.487 L85.1818 898.487 L85.1818 892.608 Z" fill="#000000" fill-rule="nonzero" fill-opacity="1"></path><path clip-path="url(#clip890)" d="M100.297 863.927 L118.654 863.927 L118.654 867.862 L104.58 867.862 L104.58 876.335 Q105.598 875.987 106.617 875.825 Q107.635 875.64 108.654 875.64 Q114.441 875.64 117.82 878.811 Q121.2 881.983 121.2 887.399 Q121.2 892.978 117.728 896.08 Q114.256 899.158 107.936 899.158 Q105.76 899.158 103.492 898.788 Q101.246 898.418 98.8391 897.677 L98.8391 892.978 Q100.922 894.112 103.145 894.668 Q105.367 895.223 107.844 895.223 Q111.848 895.223 114.186 893.117 Q116.524 891.01 116.524 887.399 Q116.524 883.788 114.186 881.682 Q111.848 879.575 107.844 879.575 Q105.969 879.575 104.094 879.992 Q102.242 880.409 100.297 881.288 L100.297 863.927 Z" fill="#000000" fill-rule="nonzero" fill-opacity="1"></path><path clip-path="url(#clip890)" d="M134.441 894.552 L150.76 894.552 L150.76 898.487 L128.816 898.487 L128.816 894.552 Q131.478 891.797 136.061 887.168 Q140.668 882.515 141.848 881.172 Q144.093 878.649 144.973 876.913 Q145.876 875.154 145.876 873.464 Q145.876 870.71 143.931 868.973 Q142.01 867.237 138.908 867.237 Q136.709 867.237 134.256 868.001 Q131.825 868.765 129.047 870.316 L129.047 865.594 Q131.871 864.46 134.325 863.881 Q136.779 863.302 138.816 863.302 Q144.186 863.302 147.38 865.987 Q150.575 868.673 150.575 873.163 Q150.575 875.293 149.765 877.214 Q148.978 879.112 146.871 881.705 Q146.293 882.376 143.191 885.594 Q140.089 888.788 134.441 894.552 Z" fill="#000000" fill-rule="nonzero" fill-opacity="1"></path><path clip-path="url(#clip890)" d="M64.0708 636.724 Q60.4597 636.724 58.631 640.289 Q56.8254 643.83 56.8254 650.96 Q56.8254 658.066 58.631 661.631 Q60.4597 665.173 64.0708 665.173 Q67.705 665.173 69.5105 661.631 Q71.3392 658.066 71.3392 650.96 Q71.3392 643.83 69.5105 640.289 Q67.705 636.724 64.0708 636.724 M64.0708 633.02 Q69.8809 633.02 72.9365 637.627 Q76.0151 642.21 76.0151 650.96 Q76.0151 659.687 72.9365 664.293 Q69.8809 668.876 64.0708 668.876 Q58.2606 668.876 55.1819 664.293 Q52.1264 659.687 52.1264 650.96 Q52.1264 642.21 55.1819 637.627 Q58.2606 633.02 64.0708 633.02 Z" fill="#000000" fill-rule="nonzero" fill-opacity="1"></path><path clip-path="url(#clip890)" d="M84.2327 662.326 L89.1169 662.326 L89.1169 668.205 L84.2327 668.205 L84.2327 662.326 Z" fill="#000000" fill-rule="nonzero" fill-opacity="1"></path><path clip-path="url(#clip890)" d="M99.3483 633.645 L117.705 633.645 L117.705 637.58 L103.631 637.58 L103.631 646.053 Q104.649 645.705 105.668 645.543 Q106.686 645.358 107.705 645.358 Q113.492 645.358 116.871 648.529 Q120.251 651.701 120.251 657.117 Q120.251 662.696 116.779 665.798 Q113.307 668.876 106.987 668.876 Q104.811 668.876 102.543 668.506 Q100.297 668.136 97.89 667.395 L97.89 662.696 Q99.9733 663.83 102.196 664.386 Q104.418 664.941 106.895 664.941 Q110.899 664.941 113.237 662.835 Q115.575 660.728 115.575 657.117 Q115.575 653.506 113.237 651.4 Q110.899 649.293 106.895 649.293 Q105.02 649.293 103.145 649.71 Q101.293 650.127 99.3483 651.006 L99.3483 633.645 Z" fill="#000000" fill-rule="nonzero" fill-opacity="1"></path><path clip-path="url(#clip890)" d="M143.631 649.571 Q146.987 650.289 148.862 652.557 Q150.76 654.826 150.76 658.159 Q150.76 663.275 147.242 666.076 Q143.723 668.876 137.242 668.876 Q135.066 668.876 132.751 668.437 Q130.459 668.02 128.006 667.164 L128.006 662.65 Q129.95 663.784 132.265 664.363 Q134.58 664.941 137.103 664.941 Q141.501 664.941 143.793 663.205 Q146.107 661.469 146.107 658.159 Q146.107 655.103 143.955 653.39 Q141.825 651.654 138.006 651.654 L133.978 651.654 L133.978 647.812 L138.191 647.812 Q141.64 647.812 143.468 646.446 Q145.297 645.057 145.297 642.465 Q145.297 639.803 143.399 638.391 Q141.524 636.955 138.006 636.955 Q136.084 636.955 133.885 637.372 Q131.686 637.789 129.047 638.668 L129.047 634.502 Q131.709 633.761 134.024 633.391 Q136.362 633.02 138.422 633.02 Q143.746 633.02 146.848 635.451 Q149.95 637.858 149.95 641.978 Q149.95 644.849 148.306 646.84 Q146.663 648.807 143.631 649.571 Z" fill="#000000" fill-rule="nonzero" fill-opacity="1"></path><path clip-path="url(#clip890)" d="M62.9365 406.442 Q59.3254 406.442 57.4967 410.007 Q55.6912 413.548 55.6912 420.678 Q55.6912 427.784 57.4967 431.349 Q59.3254 434.891 62.9365 434.891 Q66.5707 434.891 68.3763 431.349 Q70.205 427.784 70.205 420.678 Q70.205 413.548 68.3763 410.007 Q66.5707 406.442 62.9365 406.442 M62.9365 402.738 Q68.7467 402.738 71.8022 407.345 Q74.8809 411.928 74.8809 420.678 Q74.8809 429.405 71.8022 434.011 Q68.7467 438.594 62.9365 438.594 Q57.1264 438.594 54.0477 434.011 Q50.9921 429.405 50.9921 420.678 Q50.9921 411.928 54.0477 407.345 Q57.1264 402.738 62.9365 402.738 Z" fill="#000000" fill-rule="nonzero" fill-opacity="1"></path><path clip-path="url(#clip890)" d="M83.0984 432.044 L87.9827 432.044 L87.9827 437.923 L83.0984 437.923 L83.0984 432.044 Z" fill="#000000" fill-rule="nonzero" fill-opacity="1"></path><path clip-path="url(#clip890)" d="M98.2141 403.363 L116.57 403.363 L116.57 407.298 L102.496 407.298 L102.496 415.771 Q103.515 415.423 104.534 415.261 Q105.552 415.076 106.571 415.076 Q112.358 415.076 115.737 418.247 Q119.117 421.419 119.117 426.835 Q119.117 432.414 115.645 435.516 Q112.172 438.594 105.853 438.594 Q103.677 438.594 101.409 438.224 Q99.1632 437.854 96.7558 437.113 L96.7558 432.414 Q98.8391 433.548 101.061 434.104 Q103.284 434.659 105.76 434.659 Q109.765 434.659 112.103 432.553 Q114.441 430.446 114.441 426.835 Q114.441 423.224 112.103 421.118 Q109.765 419.011 105.76 419.011 Q103.885 419.011 102.01 419.428 Q100.159 419.845 98.2141 420.724 L98.2141 403.363 Z" fill="#000000" fill-rule="nonzero" fill-opacity="1"></path><path clip-path="url(#clip890)" d="M141.177 407.437 L129.371 425.886 L141.177 425.886 L141.177 407.437 M139.95 403.363 L145.83 403.363 L145.83 425.886 L150.76 425.886 L150.76 429.775 L145.83 429.775 L145.83 437.923 L141.177 437.923 L141.177 429.775 L125.575 429.775 L125.575 425.261 L139.95 403.363 Z" fill="#000000" fill-rule="nonzero" fill-opacity="1"></path><path clip-path="url(#clip890)" d="M64.418 176.16 Q60.8069 176.16 58.9782 179.725 Q57.1726 183.266 57.1726 190.396 Q57.1726 197.502 58.9782 201.067 Q60.8069 204.609 64.418 204.609 Q68.0522 204.609 69.8578 201.067 Q71.6865 197.502 71.6865 190.396 Q71.6865 183.266 69.8578 179.725 Q68.0522 176.16 64.418 176.16 M64.418 172.456 Q70.2281 172.456 73.2837 177.063 Q76.3624 181.646 76.3624 190.396 Q76.3624 199.123 73.2837 203.729 Q70.2281 208.312 64.418 208.312 Q58.6078 208.312 55.5291 203.729 Q52.4736 199.123 52.4736 190.396 Q52.4736 181.646 55.5291 177.063 Q58.6078 172.456 64.418 172.456 Z" fill="#000000" fill-rule="nonzero" fill-opacity="1"></path><path clip-path="url(#clip890)" d="M84.5799 201.762 L89.4641 201.762 L89.4641 207.641 L84.5799 207.641 L84.5799 201.762 Z" fill="#000000" fill-rule="nonzero" fill-opacity="1"></path><path clip-path="url(#clip890)" d="M99.6956 173.081 L118.052 173.081 L118.052 177.016 L103.978 177.016 L103.978 185.489 Q104.996 185.141 106.015 184.979 Q107.033 184.794 108.052 184.794 Q113.839 184.794 117.219 187.965 Q120.598 191.137 120.598 196.553 Q120.598 202.132 117.126 205.234 Q113.654 208.312 107.334 208.312 Q105.159 208.312 102.89 207.942 Q100.645 207.572 98.2372 206.831 L98.2372 202.132 Q100.321 203.266 102.543 203.822 Q104.765 204.377 107.242 204.377 Q111.246 204.377 113.584 202.271 Q115.922 200.164 115.922 196.553 Q115.922 192.942 113.584 190.836 Q111.246 188.729 107.242 188.729 Q105.367 188.729 103.492 189.146 Q101.64 189.563 99.6956 190.442 L99.6956 173.081 Z" fill="#000000" fill-rule="nonzero" fill-opacity="1"></path><path clip-path="url(#clip890)" d="M129.857 173.081 L148.214 173.081 L148.214 177.016 L134.14 177.016 L134.14 185.489 Q135.158 185.141 136.177 184.979 Q137.195 184.794 138.214 184.794 Q144.001 184.794 147.38 187.965 Q150.76 191.137 150.76 196.553 Q150.76 202.132 147.288 205.234 Q143.816 208.312 137.496 208.312 Q135.32 208.312 133.052 207.942 Q130.807 207.572 128.399 206.831 L128.399 202.132 Q130.482 203.266 132.705 203.822 Q134.927 204.377 137.404 204.377 Q141.408 204.377 143.746 202.271 Q146.084 200.164 146.084 196.553 Q146.084 192.942 143.746 190.836 Q141.408 188.729 137.404 188.729 Q135.529 188.729 133.654 189.146 Q131.802 189.563 129.857 190.442 L129.857 173.081 Z" fill="#000000" fill-rule="nonzero" fill-opacity="1"></path><polyline clip-path="url(#clip892)" style="stroke:#009af9; stroke-linecap:round; stroke-linejoin:round; stroke-width:4; stroke-opacity:1; fill:none" points="186.76,1360.34 191.101,1384.24 195.441,1351.79 199.782,1352.44 204.123,1318.85 208.463,1340.23 212.804,1329.24 217.145,1317.02 221.485,1318.47 225.826,1285.78 230.167,1377.34 234.508,1312.02 238.848,1293.28 243.189,1306.32 247.53,1290.45 251.87,1322.65 256.211,1313.16 260.552,1334.18 264.892,1291.3 269.233,1345.71 273.574,1332.87 277.914,1294.5 282.255,1279.28 286.596,1277.7 290.936,1309.18 295.277,1284.7 299.618,1258.67 303.958,1282.22 308.299,1267.94 312.64,1268.25 316.98,1284.26 321.321,1238.7 325.662,1233.22 330.002,1244.24 334.343,1260.82 338.684,1229.79 343.024,1278.25 347.365,1272.32 351.706,1291.42 356.046,1279.22 360.387,1284.38 364.728,1214.71 369.068,1237.03 373.409,1229.91 377.75,1245.21 382.09,1244.31 386.431,1273.79 390.772,1221.78 395.112,1267.41 399.453,1258.86 403.794,1239.75 408.134,1225.5 412.475,1246.13 416.816,1197.66 421.156,1138 425.497,1218.16 429.838,1218.61 434.178,1219.77 438.519,1223.75 442.86,1199.94 447.2,1182.06 451.541,1220.9 455.882,1187.9 460.223,1213.11 464.563,1157.69 468.904,1199.09 473.245,1189.77 477.585,1181.68 481.926,1185.03 486.267,1183.03 490.607,1218.44 494.948,1187.58 499.289,1173.7 503.629,1133.35 507.97,1170.2 512.311,1189.71 516.651,1164.26 520.992,1146.8 525.333,1148.06 529.673,1124.94 534.014,1140.05 538.355,1173.02 542.695,1133.57 547.036,1144.71 551.377,1164.38 555.717,1150.7 560.058,1134.87 564.399,1179.69 568.739,1129.18 573.08,1162.02 577.421,1111.13 581.761,1123.09 586.102,1097.73 590.443,1131.96 594.783,1116.5 599.124,1155.35 603.465,1099.86 607.805,1166.94 612.146,1112.75 616.487,1147.86 620.827,1143.99 625.168,1100.44 629.509,1109.64 633.849,1123.64 638.19,1094.12 642.531,1128.76 646.871,1120.19 651.212,1118.4 655.553,1070.82 659.893,1039.96 664.234,1068.92 668.575,1094.22 672.915,1098.92 677.256,1101.65 681.597,1089.1 685.937,1100.75 690.278,1049.48 694.619,1097.8 698.96,1070.33 703.3,1107.01 707.641,1089.44 711.982,1064.92 716.322,1031.54 720.663,1076.27 725.004,1047.28 729.344,1024.66 733.685,1064.02 738.026,1041.17 742.366,1030.33 746.707,1038.38 751.048,1040.7 755.388,1003.44 759.729,1049.23 764.07,1041.83 768.41,1024.43 772.751,1026.24 777.092,1093.56 781.432,1036.97 785.773,1018.75 790.114,1057.5 794.454,1012.2 798.795,1008.77 803.136,1025.34 807.476,996.432 811.817,1058.74 816.158,998.808 820.498,998.349 824.839,992.032 829.18,1027.45 833.52,987.203 837.861,974.109 842.202,1036.11 846.542,992.864 850.883,978.344 855.224,946.527 859.564,998.079 863.905,983.913 868.246,1010.41 872.586,962.062 876.927,979.354 881.268,981.694 885.608,1016.16 889.949,986.875 894.29,956.418 898.63,1016.64 902.971,921.896 907.312,978.807 911.652,948.326 915.993,924.226 920.334,962.763 924.675,990.51 929.015,968.426 933.356,949.649 937.697,974.261 942.037,936.26 946.378,898.435 950.719,908.773 955.059,897.214 959.4,942.343 963.741,964.19 968.081,883.464 972.422,894.125 976.763,933.35 981.103,900.916 985.444,942.254 989.785,917.13 994.125,946.092 998.466,849.162 1002.81,917.958 1007.15,943.892 1011.49,874.621 1015.83,964.622 1020.17,879.851 1024.51,911.409 1028.85,902.005 1033.19,886.889 1037.53,903.924 1041.87,870.734 1046.21,869.41 1050.55,832.629 1054.89,876.536 1059.24,893.63 1063.58,900.113 1067.92,881.649 1072.26,858.284 1076.6,834.175 1080.94,864.234 1085.28,845.377 1089.62,877.468 1093.96,828.224 1098.3,817.916 1102.64,830.229 1106.98,886.075 1111.32,834.954 1115.66,868.634 1120,802.667 1124.35,792.023 1128.69,796.897 1133.03,831.701 1137.37,865.97 1141.71,867.821 1146.05,857.282 1150.39,872.612 1154.73,796.229 1159.07,811.28 1163.41,811.962 1167.75,832.938 1172.09,807.398 1176.43,802.718 1180.77,772.612 1185.11,784.31 1189.46,812.777 1193.8,816.902 1198.14,824.744 1202.48,796.248 1206.82,805.346 1211.16,791.96 1215.5,794.93 1219.84,776.163 1224.18,790.345 1228.52,790.623 1232.86,776.735 1237.2,816.786 1241.54,762.519 1245.88,763.008 1250.22,763.447 1254.57,820.829 1258.91,711.67 1263.25,690.282 1267.59,770.41 1271.93,785.23 1276.27,702.742 1280.61,760.399 1284.95,821.244 1289.29,773.583 1293.63,752.2 1297.97,728.335 1302.31,740.641 1306.65,731.335 1310.99,761.829 1315.34,737.787 1319.68,766.843 1324.02,786.695 1328.36,739.953 1332.7,691.226 1337.04,725.185 1341.38,730.482 1345.72,707.258 1350.06,691.853 1354.4,735.655 1358.74,752.095 1363.08,706.672 1367.42,678.282 1371.76,728.543 1376.1,709.237 1380.45,670.815 1384.79,719.706 1389.13,717.397 1393.47,702.775 1397.81,671.019 1402.15,662.177 1406.49,670.862 1410.83,693.522 1415.17,637.058 1419.51,661.804 1423.85,677.718 1428.19,693.539 1432.53,634.992 1436.87,650.277 1441.21,648.855 1445.56,630.987 1449.9,649.846 1454.24,630.532 1458.58,692.459 1462.92,638.61 1467.26,611.508 1471.6,634.058 1475.94,643.688 1480.28,614.981 1484.62,626.371 1488.96,593.804 1493.3,670.698 1497.64,620.365 1501.98,594.123 1506.32,633.776 1510.67,637.573 1515.01,618.535 1519.35,599.469 1523.69,620.953 1528.03,593.358 1532.37,673.397 1536.71,584.58 1541.05,617.781 1545.39,604.674 1549.73,621.441 1554.07,565.884 1558.41,619.096 1562.75,588.118 1567.09,592.349 1571.43,584.261 1575.78,579.47 1580.12,606.28 1584.46,591.161 1588.8,584.242 1593.14,564.024 1597.48,620.797 1601.82,600.075 1606.16,524.231 1610.5,559.896 1614.84,535.805 1619.18,561.148 1623.52,571.552 1627.86,576.354 1632.2,531.659 1636.54,583.688 1640.89,537.396 1645.23,525.567 1649.57,541.944 1653.91,508.34 1658.25,516.116 1662.59,565.597 1666.93,532.349 1671.27,537.847 1675.61,517.868 1679.95,482.556 1684.29,542.991 1688.63,517.283 1692.97,481.981 1697.31,544.536 1701.65,524.85 1706,483.332 1710.34,518.238 1714.68,511.579 1719.02,485.673 1723.36,525.299 1727.7,477.429 1732.04,495.421 1736.38,505.557 1740.72,526.511 1745.06,535.445 1749.4,526.016 1753.74,469.105 1758.08,531.084 1762.42,443.676 1766.77,524.052 1771.11,455.003 1775.45,490.77 1779.79,478.191 1784.13,471.225 1788.47,482.904 1792.81,459.817 1797.15,479.908 1801.49,451.857 1805.83,468.565 1810.17,471.56 1814.51,472.924 1818.85,467.709 1823.19,435.853 1827.53,503.5 1831.88,418.284 1836.22,446.558 1840.56,433.126 1844.9,402.237 1849.24,446.794 1853.58,457.452 1857.92,430.665 1862.26,471.795 1866.6,380.338 1870.94,416.451 1875.28,456.36 1879.62,458.769 1883.96,411.56 1888.3,472.474 1892.64,406.899 1896.99,381.822 1901.33,417.387 1905.67,430.952 1910.01,395.84 1914.35,425.155 1918.69,377.348 1923.03,344.005 1927.37,396.15 1931.71,319.077 1936.05,397.327 1940.39,356.381 1944.73,339.862 1949.07,385.127 1953.41,400.116 1957.75,392.985 1962.1,344.809 1966.44,363.264 1970.78,405.071 1975.12,367.379 1979.46,333.767 1983.8,367.304 1988.14,353.155 1992.48,405.12 1996.82,341.426 2001.16,312.092 2005.5,312.084 2009.84,336.439 2014.18,357.668 2018.52,356.767 2022.86,314.161 2027.21,387.995 2031.55,352.502 2035.89,361.762 2040.23,321.227 2044.57,319.875 2048.91,312.49 2053.25,325.124 2057.59,320.126 2061.93,287.007 2066.27,293.838 2070.61,325.693 2074.95,318.051 2079.29,271.412 2083.63,264.664 2087.97,307.577 2092.32,300.284 2096.66,329.454 2101,265.482 2105.34,308.123 2109.68,280.355 2114.02,309.82 2118.36,312.055 2122.7,275.17 2127.04,277.707 2131.38,291.156 2135.72,228.694 2140.06,263.467 2144.4,266.981 2148.74,258.074 2153.08,209.818 2157.43,187.987 2161.77,257.824 2166.11,272.912 2170.45,255.565 2174.79,260.373 2179.13,260.785 2183.47,254.68 2187.81,239.883 2192.15,228.184 2196.49,280.227 2200.83,252.521 2205.17,237.535 2209.51,239.422 2213.85,231.97 2218.2,197.592 2222.54,196.93 2226.88,185.34 2231.22,231.86 2235.56,217.145 2239.9,186.166 2244.24,191.993 2248.58,238.855 2252.92,205.372 2257.26,193.145 2261.6,192.078 2265.94,210.68 2270.28,225.478 2274.62,206.091 2278.96,231.552 2283.31,202.367 2287.65,179.422 2291.99,205.462 2296.33,199.995 2300.67,205.362 2305.01,156.632 2309.35,138.336 2313.69,86.1857 2318.03,143.979 2322.37,151.437 2326.71,175.379 2331.05,180.861 2335.39,160.563 2339.73,202.281 2344.07,178.89 2348.42,175.375 2352.76,116.44 "></polyline>
<polyline clip-path="url(#clip892)" style="stroke:#e26f46; stroke-linecap:round; stroke-linejoin:round; stroke-width:4; stroke-opacity:1; fill:none" points="186.76,1341.77 191.092,1339.39 195.424,1337 199.756,1334.62 204.088,1332.24 208.42,1329.85 212.752,1327.47 217.084,1325.09 221.416,1322.7 225.748,1320.32 230.08,1317.93 234.412,1315.55 238.744,1313.17 243.076,1310.78 247.408,1308.4 251.74,1306.01 256.072,1303.63 260.404,1301.24 264.736,1298.86 269.068,1296.47 273.4,1294.09 277.732,1291.7 282.064,1289.32 286.396,1286.93 290.728,1284.55 295.06,1282.16 299.392,1279.78 303.724,1277.39 308.056,1275.01 312.388,1272.62 316.72,1270.24 321.052,1267.85 325.384,1265.47 329.716,1263.08 334.048,1260.69 338.38,1258.31 342.712,1255.92 347.044,1253.54 351.376,1251.15 355.708,1248.76 360.04,1246.38 364.372,1243.99 368.704,1241.61 373.036,1239.22 377.368,1236.83 381.7,1234.45 386.032,1232.06 390.364,1229.67 394.696,1227.29 399.028,1224.9 403.36,1222.51 407.692,1220.13 412.024,1217.74 416.356,1215.35 420.688,1212.96 425.02,1210.58 429.352,1208.19 433.684,1205.8 438.016,1203.41 442.348,1201.03 446.68,1198.64 451.012,1196.25 455.344,1193.86 459.676,1191.48 464.008,1189.09 468.34,1186.7 472.672,1184.31 477.004,1181.92 481.336,1179.54 485.668,1177.15 490,1174.76 494.332,1172.37 498.663,1169.98 502.995,1167.59 507.327,1165.21 511.659,1162.82 515.991,1160.43 520.323,1158.04 524.655,1155.65 528.987,1153.26 533.319,1150.87 537.651,1148.48 541.983,1146.09 546.315,1143.71 550.647,1141.32 554.979,1138.93 559.311,1136.54 563.643,1134.15 567.975,1131.76 572.307,1129.37 576.639,1126.98 580.971,1124.59 585.303,1122.2 589.635,1119.81 593.967,1117.42 598.299,1115.03 602.631,1112.64 606.963,1110.25 611.295,1107.86 615.627,1105.47 619.959,1103.08 624.291,1100.69 628.623,1098.3 632.955,1095.91 637.287,1093.51 641.619,1091.12 645.951,1088.73 650.283,1086.34 654.615,1083.95 658.947,1081.56 663.279,1079.17 667.611,1076.78 671.943,1074.39 676.275,1071.99 680.607,1069.6 684.939,1067.21 689.271,1064.82 693.603,1062.43 697.935,1060.04 702.267,1057.65 706.599,1055.25 710.931,1052.86 715.263,1050.47 719.595,1048.08 723.927,1045.68 728.259,1043.29 732.591,1040.9 736.923,1038.51 741.255,1036.12 745.587,1033.72 749.919,1031.33 754.251,1028.94 758.583,1026.55 762.915,1024.15 767.247,1021.76 771.579,1019.37 775.911,1016.97 780.243,1014.58 784.575,1012.19 788.907,1009.79 793.239,1007.4 797.571,1005.01 801.903,1002.61 806.235,1000.22 810.567,997.828 814.899,995.434 819.231,993.041 823.563,990.647 827.895,988.253 832.227,985.859 836.559,983.465 840.891,981.07 845.223,978.676 849.555,976.283 853.887,973.887 858.219,971.494 862.551,969.1 866.883,966.705 871.215,964.311 875.547,961.916 879.879,959.521 884.211,957.127 888.543,954.732 892.875,952.336 897.207,949.941 901.539,947.546 905.871,945.151 910.203,942.756 914.535,940.361 918.867,937.965 923.199,935.57 927.531,933.175 931.863,930.779 936.195,928.383 940.527,925.988 944.859,923.592 949.191,921.197 953.523,918.8 957.855,916.404 962.187,914.008 966.519,911.612 970.851,909.215 975.183,906.82 979.515,904.424 983.847,902.027 988.179,899.63 992.511,897.234 996.843,894.837 1001.17,892.441 1005.51,890.044 1009.84,887.646 1014.17,885.25 1018.5,882.853 1022.83,880.455 1027.17,878.059 1031.5,875.661 1035.83,873.264 1040.16,870.867 1044.49,868.47 1048.83,866.072 1053.16,863.674 1057.49,861.278 1061.82,858.88 1066.15,856.482 1070.49,854.084 1074.82,851.686 1079.15,849.288 1083.48,846.89 1087.81,844.491 1092.15,842.093 1096.48,839.695 1100.81,837.297 1105.14,834.899 1109.47,832.5 1113.81,830.102 1118.14,827.703 1122.47,825.305 1126.8,822.906 1131.13,820.506 1135.47,818.108 1139.8,815.709 1144.13,813.31 1148.46,810.911 1152.79,808.511 1157.13,806.112 1161.46,803.713 1165.79,801.313 1170.12,798.914 1174.45,796.515 1178.79,794.114 1183.12,791.715 1187.45,789.316 1191.78,786.915 1196.11,784.516 1200.45,782.115 1204.78,779.716 1209.11,777.315 1213.44,774.914 1217.77,772.515 1222.11,770.114 1226.44,767.714 1230.77,765.315 1235.1,762.913 1239.43,760.512 1243.77,758.113 1248.1,755.712 1252.43,753.31 1256.76,750.909 1261.09,748.509 1265.43,746.108 1269.76,743.706 1274.09,741.305 1278.42,738.903 1282.75,736.503 1287.09,734.101 1291.42,731.7 1295.75,729.298 1300.08,726.897 1304.41,724.495 1308.75,722.093 1313.08,719.691 1317.41,717.289 1321.74,714.887 1326.07,712.485 1330.41,710.083 1334.74,707.681 1339.07,705.279 1343.4,702.877 1347.73,700.475 1352.07,698.071 1356.4,695.669 1360.73,693.266 1365.06,690.864 1369.39,688.461 1373.73,686.059 1378.06,683.655 1382.39,681.253 1386.72,678.85 1391.05,676.446 1395.39,674.043 1399.72,671.64 1404.05,669.236 1408.38,666.833 1412.71,664.429 1417.05,662.026 1421.38,659.623 1425.71,657.219 1430.04,654.816 1434.37,652.411 1438.71,650.008 1443.04,647.603 1447.37,645.199 1451.7,642.796 1456.03,640.391 1460.37,637.986 1464.7,635.583 1469.03,633.178 1473.36,630.774 1477.69,628.369 1482.03,625.964 1486.36,623.559 1490.69,621.154 1495.02,618.75 1499.35,616.345 1503.69,613.94 1508.02,611.535 1512.35,609.131 1516.68,606.724 1521.01,604.32 1525.35,601.915 1529.68,599.509 1534.01,597.104 1538.34,594.698 1542.67,592.292 1547.01,589.887 1551.34,587.481 1555.67,585.075 1560,582.668 1564.33,580.264 1568.67,577.858 1573,575.451 1577.33,573.045 1581.66,570.639 1585.99,568.232 1590.33,565.827 1594.66,563.419 1598.99,561.013 1603.32,558.607 1607.65,556.199 1611.99,553.793 1616.32,551.387 1620.65,548.98 1624.98,546.572 1629.31,544.166 1633.65,541.758 1637.98,539.351 1642.31,536.945 1646.64,534.536 1650.97,532.128 1655.31,529.722 1659.64,527.315 1663.97,524.907 1668.3,522.498 1672.63,520.091 1676.97,517.683 1681.3,515.276 1685.63,512.868 1689.96,510.459 1694.29,508.052 1698.63,505.643 1702.96,503.235 1707.29,500.827 1711.62,498.418 1715.95,496.01 1720.29,493.601 1724.62,491.192 1728.95,488.785 1733.28,486.376 1737.61,483.967 1741.95,481.558 1746.28,479.149 1750.61,476.739 1754.94,474.33 1759.27,471.921 1763.61,469.512 1767.94,467.103 1772.27,464.693 1776.6,462.284 1780.93,459.875 1785.26,457.465 1789.6,455.055 1793.93,452.646 1798.26,450.236 1802.59,447.827 1806.93,445.417 1811.26,443.006 1815.59,440.596 1819.92,438.186 1824.25,435.775 1828.58,433.365 1832.92,430.955 1837.25,428.545 1841.58,426.133 1845.91,423.724 1850.24,421.313 1854.58,418.902 1858.91,416.492 1863.24,414.08 1867.57,411.67 1871.9,409.258 1876.24,406.848 1880.57,404.437 1884.9,402.025 1889.23,399.615 1893.56,397.203 1897.9,394.791 1902.23,392.38 1906.56,389.968 1910.89,387.556 1915.22,385.145 1919.56,382.733 1923.89,380.322 1928.22,377.909 1932.55,375.497 1936.88,373.085 1941.22,370.674 1945.55,368.261 1949.88,365.849 1954.21,363.436 1958.54,361.023 1962.88,358.611 1967.21,356.198 1971.54,353.785 1975.87,351.374 1980.2,348.961 1984.54,346.548 1988.87,344.135 1993.2,341.722 1997.53,339.309 2001.86,336.896 2006.2,334.483 2010.53,332.07 2014.86,329.657 2019.19,327.242 2023.52,324.829 2027.86,322.415 2032.19,320.002 2036.52,317.589 2040.85,315.174 2045.18,312.76 2049.52,310.347 2053.85,307.933 2058.18,305.518 2062.51,303.104 2066.84,300.691 2071.18,298.277 2075.51,295.862 2079.84,293.448 2084.17,291.033 2088.5,288.619 2092.84,286.205 2097.17,283.789 2101.5,281.374 2105.83,278.96 2110.16,276.544 2114.5,274.13 2118.83,271.716 2123.16,269.3 2127.49,266.884 2131.82,264.47 2136.16,262.054 2140.49,259.638 2144.82,257.224 2149.15,254.808 2153.48,252.392 2157.82,249.977 2162.15,247.561 2166.48,245.145 2170.81,242.729 2175.14,240.314 2179.48,237.898 2183.81,235.482 2188.14,233.066 2192.47,230.649 2196.8,228.233 2201.14,225.816 2205.47,223.4 2209.8,220.983 2214.13,218.566 2218.46,216.15 2222.8,213.733 2227.13,211.316 2231.46,208.9 2235.79,206.483 2240.12,204.066 2244.46,201.649 2248.79,199.232 2253.12,196.813 2257.45,194.398 2261.78,191.981 2266.12,189.562 2270.45,187.145 2274.78,184.728 2279.11,182.311 2283.44,179.892 2287.78,177.475 2292.11,175.057 2296.44,172.639 2300.77,170.221 2305.1,167.802 2309.44,165.385 2313.77,162.967 2318.1,160.548 2322.43,158.13 2326.76,155.713 2331.1,153.293 2335.43,150.876 2339.76,148.457 2344.09,146.037 2348.42,143.619 2352.76,141.2 "></polyline>
<path clip-path="url(#clip890)" d="M258.96 248.629 L656.971 248.629 L656.971 93.1086 L258.96 93.1086  Z" fill="#ffffff" fill-rule="evenodd" fill-opacity="1"></path>
<polyline clip-path="url(#clip890)" style="stroke:#000000; stroke-linecap:round; stroke-linejoin:round; stroke-width:4; stroke-opacity:1; fill:none" points="258.96,248.629 656.971,248.629 656.971,93.1086 258.96,93.1086 258.96,248.629 "></polyline>
<polyline clip-path="url(#clip890)" style="stroke:#009af9; stroke-linecap:round; stroke-linejoin:round; stroke-width:4; stroke-opacity:1; fill:none" points="283.027,144.949 427.426,144.949 "></polyline>
<path clip-path="url(#clip890)" d="M464.896 149.196 Q459.734 149.196 457.743 150.377 Q455.752 151.557 455.752 154.405 Q455.752 156.673 457.234 158.016 Q458.738 159.335 461.308 159.335 Q464.849 159.335 466.979 156.835 Q469.132 154.312 469.132 150.145 L469.132 149.196 L464.896 149.196 M473.391 147.437 L473.391 162.229 L469.132 162.229 L469.132 158.293 Q467.673 160.655 465.497 161.789 Q463.322 162.9 460.173 162.9 Q456.192 162.9 453.831 160.678 Q451.493 158.432 451.493 154.682 Q451.493 150.307 454.41 148.085 Q457.349 145.863 463.16 145.863 L469.132 145.863 L469.132 145.446 Q469.132 142.507 467.187 140.909 Q465.266 139.289 461.771 139.289 Q459.548 139.289 457.442 139.821 Q455.336 140.354 453.391 141.419 L453.391 137.483 Q455.729 136.581 457.928 136.141 Q460.127 135.678 462.21 135.678 Q467.835 135.678 470.613 138.594 Q473.391 141.511 473.391 147.437 Z" fill="#000000" fill-rule="nonzero" fill-opacity="1"></path><path clip-path="url(#clip890)" d="M503.715 146.581 L503.715 162.229 L499.456 162.229 L499.456 146.719 Q499.456 143.039 498.02 141.21 Q496.585 139.382 493.715 139.382 Q490.266 139.382 488.275 141.581 Q486.284 143.78 486.284 147.576 L486.284 162.229 L482.002 162.229 L482.002 136.303 L486.284 136.303 L486.284 140.331 Q487.812 137.993 489.872 136.835 Q491.956 135.678 494.664 135.678 Q499.132 135.678 501.423 138.456 Q503.715 141.21 503.715 146.581 Z" fill="#000000" fill-rule="nonzero" fill-opacity="1"></path><path clip-path="url(#clip890)" d="M523.993 149.196 Q518.831 149.196 516.84 150.377 Q514.849 151.557 514.849 154.405 Q514.849 156.673 516.331 158.016 Q517.835 159.335 520.405 159.335 Q523.946 159.335 526.076 156.835 Q528.229 154.312 528.229 150.145 L528.229 149.196 L523.993 149.196 M532.488 147.437 L532.488 162.229 L528.229 162.229 L528.229 158.293 Q526.77 160.655 524.594 161.789 Q522.418 162.9 519.27 162.9 Q515.289 162.9 512.928 160.678 Q510.59 158.432 510.59 154.682 Q510.59 150.307 513.506 148.085 Q516.446 145.863 522.256 145.863 L528.229 145.863 L528.229 145.446 Q528.229 142.507 526.284 140.909 Q524.363 139.289 520.868 139.289 Q518.645 139.289 516.539 139.821 Q514.432 140.354 512.488 141.419 L512.488 137.483 Q514.826 136.581 517.025 136.141 Q519.224 135.678 521.307 135.678 Q526.932 135.678 529.71 138.594 Q532.488 141.511 532.488 147.437 Z" fill="#000000" fill-rule="nonzero" fill-opacity="1"></path><path clip-path="url(#clip890)" d="M541.261 126.21 L545.52 126.21 L545.52 162.229 L541.261 162.229 L541.261 126.21 Z" fill="#000000" fill-rule="nonzero" fill-opacity="1"></path><path clip-path="url(#clip890)" d="M565.219 164.636 Q563.414 169.266 561.701 170.678 Q559.988 172.09 557.117 172.09 L553.715 172.09 L553.715 168.525 L556.215 168.525 Q557.974 168.525 558.946 167.692 Q559.918 166.858 561.099 163.756 L561.863 161.812 L551.377 136.303 L555.891 136.303 L563.992 156.581 L572.094 136.303 L576.608 136.303 L565.219 164.636 Z" fill="#000000" fill-rule="nonzero" fill-opacity="1"></path><path clip-path="url(#clip890)" d="M586.701 128.942 L586.701 136.303 L595.474 136.303 L595.474 139.613 L586.701 139.613 L586.701 153.687 Q586.701 156.858 587.557 157.761 Q588.437 158.664 591.099 158.664 L595.474 158.664 L595.474 162.229 L591.099 162.229 Q586.168 162.229 584.293 160.4 Q582.418 158.548 582.418 153.687 L582.418 139.613 L579.293 139.613 L579.293 136.303 L582.418 136.303 L582.418 128.942 L586.701 128.942 Z" fill="#000000" fill-rule="nonzero" fill-opacity="1"></path><path clip-path="url(#clip890)" d="M601.075 136.303 L605.335 136.303 L605.335 162.229 L601.075 162.229 L601.075 136.303 M601.075 126.21 L605.335 126.21 L605.335 131.604 L601.075 131.604 L601.075 126.21 Z" fill="#000000" fill-rule="nonzero" fill-opacity="1"></path><path clip-path="url(#clip890)" d="M632.904 137.298 L632.904 141.28 Q631.098 140.284 629.27 139.798 Q627.464 139.289 625.612 139.289 Q621.469 139.289 619.177 141.928 Q616.886 144.544 616.886 149.289 Q616.886 154.034 619.177 156.673 Q621.469 159.289 625.612 159.289 Q627.464 159.289 629.27 158.803 Q631.098 158.293 632.904 157.298 L632.904 161.233 Q631.122 162.067 629.2 162.483 Q627.302 162.9 625.149 162.9 Q619.293 162.9 615.844 159.219 Q612.395 155.539 612.395 149.289 Q612.395 142.946 615.867 139.312 Q619.362 135.678 625.427 135.678 Q627.395 135.678 629.27 136.095 Q631.145 136.488 632.904 137.298 Z" fill="#000000" fill-rule="nonzero" fill-opacity="1"></path><polyline clip-path="url(#clip890)" style="stroke:#e26f46; stroke-linecap:round; stroke-linejoin:round; stroke-width:4; stroke-opacity:1; fill:none" points="283.027,196.789 427.426,196.789 "></polyline>
<path clip-path="url(#clip890)" d="M451.493 179.509 L457.789 179.509 L473.113 208.421 L473.113 179.509 L477.65 179.509 L477.65 214.069 L471.354 214.069 L456.03 185.157 L456.03 214.069 L451.493 214.069 L451.493 179.509 Z" fill="#000000" fill-rule="nonzero" fill-opacity="1"></path><path clip-path="url(#clip890)" d="M486.956 179.509 L493.252 179.509 L508.576 208.421 L508.576 179.509 L513.113 179.509 L513.113 214.069 L506.817 214.069 L491.493 185.157 L491.493 214.069 L486.956 214.069 L486.956 179.509 Z" fill="#000000" fill-rule="nonzero" fill-opacity="1"></path><path clip-path="url(#clip890)" d="M536.446 182.68 Q531.354 182.68 528.344 186.476 Q525.358 190.272 525.358 196.823 Q525.358 203.351 528.344 207.147 Q531.354 210.944 536.446 210.944 Q541.539 210.944 544.502 207.147 Q547.488 203.351 547.488 196.823 Q547.488 190.272 544.502 186.476 Q541.539 182.68 536.446 182.68 M536.446 178.884 Q543.715 178.884 548.066 183.768 Q552.418 188.629 552.418 196.823 Q552.418 204.995 548.066 209.879 Q543.715 214.74 536.446 214.74 Q529.155 214.74 524.78 209.879 Q520.428 205.018 520.428 196.823 Q520.428 188.629 524.78 183.768 Q529.155 178.884 536.446 178.884 Z" fill="#000000" fill-rule="nonzero" fill-opacity="1"></path><path clip-path="url(#clip890)" d="M564.409 183.351 L564.409 210.226 L570.057 210.226 Q577.21 210.226 580.52 206.985 Q583.853 203.745 583.853 196.754 Q583.853 189.809 580.52 186.592 Q577.21 183.351 570.057 183.351 L564.409 183.351 M559.733 179.509 L569.34 179.509 Q579.386 179.509 584.085 183.698 Q588.784 187.865 588.784 196.754 Q588.784 205.689 584.062 209.879 Q579.339 214.069 569.34 214.069 L559.733 214.069 L559.733 179.509 Z" fill="#000000" fill-rule="nonzero" fill-opacity="1"></path><path clip-path="url(#clip890)" d="M596.238 179.509 L618.089 179.509 L618.089 183.444 L600.913 183.444 L600.913 193.675 L617.372 193.675 L617.372 197.61 L600.913 197.61 L600.913 210.133 L618.506 210.133 L618.506 214.069 L596.238 214.069 L596.238 179.509 Z" fill="#000000" fill-rule="nonzero" fill-opacity="1"></path></svg>